<svg viewBox="0 0 36 36" xmlns="http://www.w3.org/2000/svg">
	<path d="M1.05923 2.37893V36L11.6712 34.0787V0.246704L1.05923 2.37893Z"/>
	<path d="M27.0454 18.4735C26.0339 17.4665 24.6659 16.9318 23.2823 16.9318C22.551 16.9318 21.8153 17.0812 21.1255 17.3893C20.5392 17.6508 20.0087 18.0156 19.5479 18.4739C18.5488 19.4692 17.9983 20.7928 17.9983 22.2003C17.9983 23.6078 18.5488 24.9315 19.5485 25.9273C20.0078 26.3847 20.5383 26.7494 21.1251 27.0111C23.1203 27.903 25.4991 27.467 27.0455 25.9271C28.0455 24.9314 28.5961 23.6078 28.5961 22.2003C28.5961 20.7928 28.0455 19.4692 27.0454 18.4735Z"/>
	<path d="M24.3484 2.01691V14.8941C24.4257 14.9051 24.503 14.9167 24.5801 14.9302C26.0833 15.1924 27.4503 15.901 28.5334 16.9791C29.9339 18.3738 30.7051 20.228 30.7051 22.2004C30.7051 23.8189 30.1854 25.3576 29.2255 26.6282L34.9406 32.3527V0L24.3484 2.01691Z"/>
	<path d="M27.7297 28.115C26.804 28.8062 25.7324 29.2703 24.5802 29.4714C24.5031 29.4849 24.4257 29.4956 24.3485 29.5067V35.7942L33.5986 33.9935L27.7297 28.115Z"/>
	<path d="M20.266 15.4635C20.8991 15.1807 21.5627 14.991 22.2395 14.894V1.99685L13.7803 0.251343V34.1018L22.2395 35.7897V29.5078C21.5625 29.4107 20.8989 29.2202 20.2653 28.937C19.4441 28.5708 18.702 28.0608 18.0601 27.4217C16.6602 26.0271 15.8892 24.1729 15.8892 22.2004C15.8892 20.228 16.6602 18.3738 18.0601 16.9792C18.7035 16.3393 19.4456 15.8295 20.266 15.4635Z"/>
</svg>
