<svg viewBox="0 0 20 20" xmlns="http://www.w3.org/2000/svg">
	<path d="M19.947 7.69564C19.7956 7.22949 19.3444 6.9092 18.7093 6.81689L13.5331 6.06463L11.2182 1.37436C10.9342 0.798799 10.4902 0.46875 10 0.46875C9.50993 0.46875 9.0659 0.798799 8.78178 1.37436L6.46716 6.06463L1.29059 6.81689C0.655521 6.9092 0.204316 7.22949 0.0529485 7.69564C-0.0984194 8.1618 0.0782782 8.6861 0.537875 9.13394L4.28362 12.7849L3.39922 17.9404C3.28615 18.5998 3.47887 18.995 3.66045 19.2103C3.87361 19.463 4.18413 19.6021 4.53509 19.6021C4.79937 19.6021 5.08028 19.5249 5.3702 19.3725L10 16.9384L14.63 19.3725C14.92 19.5249 15.2009 19.6021 15.465 19.6023H15.4652C15.8161 19.6023 16.1268 19.463 16.3398 19.2103C16.5214 18.995 16.7141 18.5998 16.6009 17.9404L15.7168 12.7849L19.4622 9.1341C19.9218 8.6861 20.0985 8.1618 19.947 7.69564ZM18.6443 8.29486L14.6783 12.1608C14.5402 12.2954 14.4771 12.4895 14.5098 12.6795L15.4459 18.1386C15.4732 18.2975 15.4615 18.3877 15.4507 18.4298C15.4089 18.427 15.3191 18.4109 15.1754 18.3353L10.2727 15.7578C10.1873 15.7129 10.0937 15.6905 10 15.6905C9.90636 15.6905 9.81267 15.7129 9.72737 15.7578L4.825 18.3352C4.68127 18.4107 4.59139 18.427 4.54958 18.4298C4.5389 18.3877 4.527 18.2975 4.55431 18.1386L5.49075 12.6796C5.52325 12.4895 5.46023 12.2954 5.32214 12.161L1.3559 8.29486C1.24055 8.1824 1.19706 8.1026 1.18088 8.06216C1.21766 8.03897 1.29975 7.99991 1.45921 7.97671L6.94064 7.1802C7.13153 7.15243 7.29648 7.03249 7.38178 6.85961L9.83281 1.89301C9.90422 1.74851 9.96663 1.68259 10.0002 1.65467C10.0336 1.68259 10.0962 1.74851 10.1674 1.89301L12.6186 6.85961C12.7041 7.03249 12.869 7.15243 13.0599 7.1802L18.5409 7.97671C18.7005 7.99991 18.7824 8.03897 18.8192 8.06216C18.803 8.10244 18.7597 8.1824 18.6443 8.29486Z"/>
</svg>